<svg id="Layer_1" data-name="Layer 1" xmlns="http://www.w3.org/2000/svg" viewBox="0 0 367 318"><defs><style>.cls-1{fill:#c1bfbc;}</style></defs><title>logo2022</title><rect class="cls-1" width="367" height="318"/><path d="M74.76,187.08,60.49,239H13.21L74.93,36.8h59.83l63,202.2H148.45L132.9,187.08ZM126.13,153l-12.6-43c-3.47-12-7.06-27.11-10.16-38.94h-.63c-3,11.9-6,27.25-9.26,39L81.39,153Z"/><path d="M221.25,26H267V239H221.25Z"/><path d="M350.75,51.4c-.35,30-45.85,29.61-48.18,2.5-1.66-17.16,13.28-32.24,24-25.22C347,42,351,36.57,350.75,51.4Zm-47,187.6V92.16h45.71V239Z"/><path d="M26.31,286.54,22.39,299h-13l16.92-48.53H42.76L60,299H46.52l-4.27-12.46Zm14.09-8.18-3.46-10.31c-.95-2.87-1.93-6.51-2.79-9.35H34c-.81,2.86-1.65,6.54-2.54,9.36l-3.31,10.3Z"/><path d="M66.49,247.88H79V299H66.49Z"/><path d="M89.11,247.88h12.54V268h.17a13.91,13.91,0,0,1,4.9-3.64,15.61,15.61,0,0,1,6.51-1.4c8,0,14.11,4.85,14.11,15.48V299H114.81V279.64c0-4.64-1.83-7.81-6.47-7.81a6.57,6.57,0,0,0-6.28,3.87,5.87,5.87,0,0,0-.41,2.39V299H89.11Z"/><path d="M160.24,299l-.73-3.5h-.27c-2.63,2.8-6.74,4.29-11.5,4.29-8.2,0-13-5.15-13-10.78,0-9.18,9.39-13.53,23.63-13.52V275c0-1.87-1.15-4.55-7.37-4.54a25.87,25.87,0,0,0-11.1,2.63l-2.3-7A36.36,36.36,0,0,1,153.23,263c13.41,0,17.65,6.94,17.65,15.21v12.29a44.52,44.52,0,0,0,.64,8.54Zm-1.51-16.67c-6.59,0-11.68,1.36-11.68,5.56,0,2.84,2.12,4.22,5,4.22a6.81,6.81,0,0,0,6.47-4.05,5.82,5.82,0,0,0,.24-1.87Z"/><path d="M180.72,289.45a27,27,0,0,0,10.74,2.62c3.78,0,5.39-1.11,5.39-2.91s-1.28-2.71-5.91-4.07c-8.37-2.41-11.52-6.4-11.47-10.54,0-6.62,6.38-11.59,16.37-11.59A29.8,29.8,0,0,1,207.18,265L205,272.56a22.87,22.87,0,0,0-8.72-2c-3.06,0-4.81,1.06-4.81,2.83s1.6,2.58,6.53,4.07c7.65,2.27,10.85,5.71,10.89,10.85,0,6.58-5.86,11.43-17.4,11.43a32.21,32.21,0,0,1-13-2.48Z"/><path d="M216.48,247.88H229V268h.17a13.91,13.91,0,0,1,4.9-3.64,15.61,15.61,0,0,1,6.51-1.4c8,0,14.11,4.85,14.11,15.48V299H242.18V279.64c0-4.64-1.83-7.81-6.47-7.81a6.57,6.57,0,0,0-6.28,3.87,5.87,5.87,0,0,0-.41,2.39V299H216.48Z"/><path d="M277.59,254c0,3-2.56,5.47-6.73,5.47-4,0-6.53-2.42-6.51-5.47s2.61-5.48,6.62-5.48S277.54,250.83,277.59,254ZM264.7,299V263.76h12.54V299Z"/><path d="M287.24,275c0-4.38-.15-8.1-.32-11.25H297.5l.53,4.77h.26c1.7-2.24,5.29-5.57,12.15-5.57,5.23,0,9.29,2.34,11,6h.16a16.2,16.2,0,0,1,5.23-4.29A15.91,15.91,0,0,1,334.5,263c7.69,0,13.56,4.77,13.56,15.3V299H335.88V279.86c0-5.11-1.88-8.07-5.93-8.07a6.06,6.06,0,0,0-5.76,3.82,8.57,8.57,0,0,0-.45,2.78V299H311.56V279.24c0-4.44-1.81-7.45-5.8-7.45a6.33,6.33,0,0,0-5.87,3.93,7.33,7.33,0,0,0-.47,2.78V299H287.24Z"/></svg>